<svg width="30" height="30" viewBox="0 0 30 30" fill="none" xmlns="http://www.w3.org/2000/svg">
<path fill-rule="evenodd" clip-rule="evenodd" d="M18.7868 1.83765C18.9624 2.01343 19.061 2.25171 19.061 2.50015C19.061 2.74859 18.9624 2.98687 18.7868 3.16265C18.2668 3.68432 17.8002 4.23432 17.3868 4.81265L18.8956 6.3214C19.0612 6.49912 19.1514 6.73418 19.1471 6.97705C19.1428 7.21993 19.0444 7.45166 18.8726 7.62343C18.7009 7.7952 18.4691 7.89358 18.2263 7.89787C17.9834 7.90216 17.7483 7.812 17.5706 7.6464L16.3856 6.4614C16.1223 6.97974 15.8994 7.50723 15.7169 8.0439L21.8156 14.1414C21.8593 14.1874 21.8994 14.2368 21.9356 14.2889C22.4517 14.1129 22.9557 13.9033 23.4444 13.6614L19.6843 9.90015C19.5922 9.81432 19.5184 9.71082 19.4671 9.59582C19.4159 9.48082 19.3883 9.35668 19.3861 9.2308C19.3839 9.10493 19.407 8.97989 19.4542 8.86315C19.5013 8.74642 19.5715 8.64038 19.6606 8.55135C19.7496 8.46233 19.8556 8.39215 19.9724 8.345C20.0891 8.29785 20.2141 8.27469 20.34 8.27691C20.4659 8.27913 20.59 8.30669 20.705 8.35793C20.82 8.40917 20.9235 8.48304 21.0094 8.57515L25.1043 12.6689C25.7127 12.2422 26.2902 11.7564 26.8368 11.2114C26.9227 11.1193 27.0262 11.0454 27.1412 10.9942C27.2562 10.9429 27.3803 10.9154 27.5062 10.9132C27.6321 10.9109 27.7571 10.9341 27.8738 10.9812C27.9906 11.0284 28.0966 11.0986 28.1856 11.1876C28.2747 11.2766 28.3449 11.3827 28.392 11.4994C28.4392 11.6161 28.4623 11.7412 28.4601 11.8671C28.4579 11.9929 28.4303 12.1171 28.3791 12.2321C28.3278 12.3471 28.254 12.4506 28.1619 12.5364C24.8844 15.8152 20.3318 17.3539 16.2168 16.5527C17.1543 20.5214 15.7168 24.9827 12.5368 28.1614C12.451 28.2535 12.3475 28.3274 12.2325 28.3786C12.1175 28.4299 11.9934 28.4574 11.8675 28.4596C11.7416 28.4619 11.6166 28.4387 11.4999 28.3916C11.3831 28.3444 11.2771 28.2742 11.1881 28.1852C11.099 28.0962 11.0288 27.9901 10.9817 27.8734C10.9345 27.7567 10.9114 27.6316 10.9136 27.5057C10.9158 27.3799 10.9434 27.2557 10.9946 27.1407C11.0459 27.0257 11.1197 26.9222 11.2118 26.8364C11.7462 26.3002 12.2306 25.7165 12.6593 25.0927L10.9668 23.4014C10.8774 23.3149 10.806 23.2114 10.7569 23.097C10.7078 22.9826 10.682 22.8596 10.681 22.7351C10.68 22.6106 10.7038 22.4872 10.7509 22.372C10.7981 22.2568 10.8678 22.1521 10.9559 22.0642C11.0439 21.9762 11.1486 21.9066 11.2639 21.8595C11.3791 21.8124 11.5026 21.7888 11.627 21.7899C11.7515 21.7911 11.8745 21.817 11.9889 21.8662C12.1032 21.9154 12.2067 21.9868 12.2931 22.0764L13.6218 23.4039C13.8543 22.8989 14.0473 22.3872 14.2006 21.8689L14.1406 21.8139L8.12435 15.8002C7.57435 15.9627 7.03185 16.1706 6.49685 16.4239L10.0356 19.9614C10.2116 20.1371 10.3107 20.3755 10.3109 20.6243C10.3111 20.873 10.2126 21.1116 10.0368 21.2877C9.86114 21.4637 9.6227 21.5627 9.37398 21.563C9.12526 21.5632 8.88664 21.4646 8.7106 21.2889L4.8206 17.3977C4.23727 17.8043 3.68393 18.2677 3.1606 18.7877C2.98288 18.9533 2.74782 19.0434 2.50495 19.0391C2.26207 19.0348 2.03034 18.9364 1.85857 18.7647C1.68681 18.5929 1.58842 18.3612 1.58413 18.1183C1.57985 17.8754 1.67 17.6404 1.8356 17.4627C5.01435 14.2827 9.4756 12.8464 13.4443 13.7827C12.6443 9.66765 14.1818 5.11515 17.4606 1.83765C17.6364 1.66209 17.8747 1.56348 18.1231 1.56348C18.3715 1.56348 18.6111 1.66209 18.7868 1.83765ZM19.8106 14.7902L15.2106 10.1877C15.0118 11.6502 15.1193 13.1052 15.5493 14.4527C16.8968 14.8827 18.3518 14.9902 19.8143 14.7914M14.1643 16.1939C14.5381 17.2777 14.6806 18.4439 14.6056 19.6277L10.3756 15.3977C11.5593 15.3227 12.7256 15.4652 13.8094 15.8389L14.0743 15.9289L14.1643 16.1939Z" fill="#3B82F6"/>
</svg>
