<svg width="21" height="24" viewBox="0 0 21 24" fill="none" xmlns="http://www.w3.org/2000/svg">
<path d="M14.75 0.75H5.41667C4.17899 0.75 2.992 1.24167 2.11683 2.11684C1.24167 2.992 0.75 4.17899 0.75 5.41667V17.6667C0.75 18.9043 1.24167 20.0913 2.11683 20.9665C2.992 21.8417 4.17899 22.3333 5.41667 22.3333H14.75C15.9877 22.3333 17.1747 21.8417 18.0498 20.9665C18.925 20.0913 19.4167 18.9043 19.4167 17.6667V5.41667C19.4167 4.17899 18.925 2.992 18.0498 2.11684C17.1747 1.24167 15.9877 0.75 14.75 0.75Z" stroke="#3B82F6" stroke-width="1.5" stroke-linecap="round" stroke-linejoin="round"/>
<path d="M4.83333 12.7082H6M9.5 12.7082H10.6667M14.1667 12.7082H15.3333M4.83333 15.6248H6M9.5 15.6248H10.6667M14.1667 15.6248H15.3333M4.83333 18.5415H6M9.5 18.5415H10.6667M14.1667 18.5415H15.3333M14.8468 4.5415H5.31983C4.7295 4.5415 4.25 5.06417 4.25 5.70817V8.0415C4.25 8.6855 4.72833 9.20817 5.31983 9.20817H14.8468C15.4372 9.20817 15.9167 8.6855 15.9167 8.0415V5.70817C15.9167 5.06417 15.4383 4.5415 14.8468 4.5415Z" stroke="#3B82F6" stroke-width="1.5" stroke-linecap="round" stroke-linejoin="round"/>
</svg>
