<svg width="22" height="22" viewBox="0 0 22 22" fill="none" xmlns="http://www.w3.org/2000/svg">
<path d="M14.6673 6.41659H14.6765M3.11732 16.4999H11.0007C12.9456 16.4999 14.8108 15.7273 16.1861 14.352C17.5614 12.9768 18.334 11.1115 18.334 9.16659V6.41659C18.336 5.6355 18.0886 4.87417 17.6278 4.24353C17.1669 3.61288 16.5167 3.14588 15.7719 2.91058C15.0271 2.67527 14.2267 2.68395 13.4871 2.93536C12.7476 3.18677 12.1077 3.66776 11.6607 4.30825L1.83398 18.3333" stroke="#CC8800" stroke-width="2" stroke-linecap="round" stroke-linejoin="round"/>
<path d="M18.3346 6.4165L20.168 6.87484L18.3346 7.33317M9.16797 16.4998V19.2498M12.8346 16.2707V19.2498M6.41797 16.4998C7.54833 16.4998 8.65122 16.1514 9.57655 15.5022C10.5019 14.853 11.2047 13.9345 11.5894 12.8716C11.9741 11.8087 12.0219 10.6531 11.7264 9.56205C11.4309 8.471 10.8065 7.49749 9.93797 6.774" stroke="#CC8800" stroke-width="2" stroke-linecap="round" stroke-linejoin="round"/>
</svg>
