<svg width="24" height="24" viewBox="0 0 24 24" fill="none" xmlns="http://www.w3.org/2000/svg">
<path d="M6.76452 14C6.76452 14.2652 6.66271 14.5196 6.48148 14.7071C6.30026 14.8946 6.05446 15 5.79816 15H4.8318C4.57551 15 4.32971 14.8946 4.14848 14.7071C3.96726 14.5196 3.86544 14.2652 3.86544 14C3.86544 13.7348 3.96726 13.4804 4.14848 13.2929C4.32971 13.1054 4.57551 13 4.8318 13H5.79816C6.05446 13 6.30026 13.1054 6.48148 13.2929C6.66271 13.4804 6.76452 13.7348 6.76452 14ZM10.63 13H9.66361C9.40731 13 9.16151 13.1054 8.98029 13.2929C8.79906 13.4804 8.69725 13.7348 8.69725 14C8.69725 14.2652 8.79906 14.5196 8.98029 14.7071C9.16151 14.8946 9.40731 15 9.66361 15H10.63C10.8863 15 11.1321 14.8946 11.3133 14.7071C11.4945 14.5196 11.5963 14.2652 11.5963 14C11.5963 13.7348 11.4945 13.4804 11.3133 13.2929C11.1321 13.1054 10.8863 13 10.63 13ZM5.79816 17H4.8318C4.57551 17 4.32971 17.1054 4.14848 17.2929C3.96726 17.4804 3.86544 17.7348 3.86544 18C3.86544 18.2652 3.96726 18.5196 4.14848 18.7071C4.32971 18.8946 4.57551 19 4.8318 19H5.79816C6.05446 19 6.30026 18.8946 6.48148 18.7071C6.66271 18.5196 6.76452 18.2652 6.76452 18C6.76452 17.7348 6.66271 17.4804 6.48148 17.2929C6.30026 17.1054 6.05446 17 5.79816 17ZM10.63 17H9.66361C9.40731 17 9.16151 17.1054 8.98029 17.2929C8.79906 17.4804 8.69725 17.7348 8.69725 18C8.69725 18.2652 8.79906 18.5196 8.98029 18.7071C9.16151 18.8946 9.40731 19 9.66361 19H10.63C10.8863 19 11.1321 18.8946 11.3133 18.7071C11.4945 18.5196 11.5963 18.2652 11.5963 18C11.5963 17.7348 11.4945 17.4804 11.3133 17.2929C11.1321 17.1054 10.8863 17 10.63 17ZM5.79816 5H4.8318C4.57551 5 4.32971 5.10536 4.14848 5.29289C3.96726 5.48043 3.86544 5.73478 3.86544 6C3.86544 6.26522 3.96726 6.51957 4.14848 6.70711C4.32971 6.89464 4.57551 7 4.8318 7H5.79816C6.05446 7 6.30026 6.89464 6.48148 6.70711C6.66271 6.51957 6.76452 6.26522 6.76452 6C6.76452 5.73478 6.66271 5.48043 6.48148 5.29289C6.30026 5.10536 6.05446 5 5.79816 5ZM10.63 5H9.66361C9.40731 5 9.16151 5.10536 8.98029 5.29289C8.79906 5.48043 8.69725 5.73478 8.69725 6C8.69725 6.26522 8.79906 6.51957 8.98029 6.70711C9.16151 6.89464 9.40731 7 9.66361 7H10.63C10.8863 7 11.1321 6.89464 11.3133 6.70711C11.4945 6.51957 11.5963 6.26522 11.5963 6C11.5963 5.73478 11.4945 5.48043 11.3133 5.29289C11.1321 5.10536 10.8863 5 10.63 5ZM5.79816 9H4.8318C4.57551 9 4.32971 9.10536 4.14848 9.29289C3.96726 9.48043 3.86544 9.73478 3.86544 10C3.86544 10.2652 3.96726 10.5196 4.14848 10.7071C4.32971 10.8946 4.57551 11 4.8318 11H5.79816C6.05446 11 6.30026 10.8946 6.48148 10.7071C6.66271 10.5196 6.76452 10.2652 6.76452 10C6.76452 9.73478 6.66271 9.48043 6.48148 9.29289C6.30026 9.10536 6.05446 9 5.79816 9ZM10.63 9H9.66361C9.40731 9 9.16151 9.10536 8.98029 9.29289C8.79906 9.48043 8.69725 9.73478 8.69725 10C8.69725 10.2652 8.79906 10.5196 8.98029 10.7071C9.16151 10.8946 9.40731 11 9.66361 11H10.63C10.8863 11 11.1321 10.8946 11.3133 10.7071C11.4945 10.5196 11.5963 10.2652 11.5963 10C11.5963 9.73478 11.4945 9.48043 11.3133 9.29289C11.1321 9.10536 10.8863 9 10.63 9ZM23.1927 10V19C23.1911 20.3256 22.6816 21.5964 21.7758 22.5338C20.87 23.4711 19.6419 23.9984 18.3609 24H4.8318C3.5508 23.9984 2.3227 23.4711 1.4169 22.5338C0.511091 21.5964 0.00153444 20.3256 0 19L0 5C0.00153444 3.6744 0.511091 2.40356 1.4169 1.46622C2.3227 0.528882 3.5508 0.00158786 4.8318 0L10.63 0C11.911 0.00158786 13.1391 0.528882 14.0449 1.46622C14.9507 2.40356 15.4602 3.6744 15.4618 5H18.3609C19.6419 5.00159 20.87 5.52888 21.7758 6.46622C22.6816 7.40356 23.1911 8.6744 23.1927 10ZM4.8318 22H13.529V5C13.529 4.20435 13.2236 3.44129 12.6799 2.87868C12.1362 2.31607 11.3989 2 10.63 2H4.8318C4.06292 2 3.32553 2.31607 2.78184 2.87868C2.23816 3.44129 1.93272 4.20435 1.93272 5V19C1.93272 19.7956 2.23816 20.5587 2.78184 21.1213C3.32553 21.6839 4.06292 22 4.8318 22ZM21.2599 10C21.2599 9.20435 20.9545 8.44129 20.4108 7.87868C19.8671 7.31607 19.1297 7 18.3609 7H15.4618V22H18.3609C19.1297 22 19.8671 21.6839 20.4108 21.1213C20.9545 20.5587 21.2599 19.7956 21.2599 19V10ZM18.3609 13C18.1697 13 17.9829 13.0586 17.824 13.1685C17.6651 13.2784 17.5412 13.4346 17.4681 13.6173C17.3949 13.8 17.3758 14.0011 17.4131 14.1951C17.4503 14.3891 17.5424 14.5673 17.6775 14.7071C17.8127 14.847 17.9849 14.9422 18.1723 14.9808C18.3598 15.0194 18.5541 14.9996 18.7307 14.9239C18.9072 14.8482 19.0582 14.72 19.1644 14.5556C19.2705 14.3911 19.3272 14.1978 19.3272 14C19.3272 13.7348 19.2254 13.4804 19.0442 13.2929C18.8629 13.1054 18.6171 13 18.3609 13ZM18.3609 17C18.1697 17 17.9829 17.0586 17.824 17.1685C17.6651 17.2784 17.5412 17.4346 17.4681 17.6173C17.3949 17.8 17.3758 18.0011 17.4131 18.1951C17.4503 18.3891 17.5424 18.5673 17.6775 18.7071C17.8127 18.847 17.9849 18.9422 18.1723 18.9808C18.3598 19.0194 18.5541 18.9996 18.7307 18.9239C18.9072 18.8482 19.0582 18.72 19.1644 18.5556C19.2705 18.3911 19.3272 18.1978 19.3272 18C19.3272 17.7348 19.2254 17.4804 19.0442 17.2929C18.8629 17.1054 18.6171 17 18.3609 17ZM18.3609 9C18.1697 9 17.9829 9.05865 17.824 9.16853C17.6651 9.27841 17.5412 9.43459 17.4681 9.61732C17.3949 9.80004 17.3758 10.0011 17.4131 10.1951C17.4503 10.3891 17.5424 10.5673 17.6775 10.7071C17.8127 10.847 17.9849 10.9422 18.1723 10.9808C18.3598 11.0194 18.5541 10.9996 18.7307 10.9239C18.9072 10.8482 19.0582 10.72 19.1644 10.5556C19.2705 10.3911 19.3272 10.1978 19.3272 10C19.3272 9.73478 19.2254 9.48043 19.0442 9.29289C18.8629 9.10536 18.6171 9 18.3609 9Z" fill="#3B82F6"/>
</svg>
